<svg width="25" height="25" viewBox="0 0 25 25" fill="none" xmlns="http://www.w3.org/2000/svg">
<path d="M3.61324 23.5082C3.77375 23.5972 3.95514 23.6415 4.13858 23.6366C4.32201 23.6317 4.50079 23.5778 4.65634 23.4805L12.3331 18.6822L20.0099 23.4805C20.1655 23.5777 20.3443 23.6315 20.5276 23.6364C20.711 23.6412 20.8924 23.5968 21.0528 23.5079C21.2133 23.419 21.347 23.2887 21.4401 23.1306C21.5332 22.9726 21.5823 22.7925 21.5823 22.609V4.1107C21.5823 3.29303 21.2575 2.50884 20.6793 1.93065C20.1011 1.35247 19.3169 1.02765 18.4993 1.02765H6.16704C5.34936 1.02765 4.56517 1.35247 3.98699 1.93065C3.40881 2.50884 3.08398 3.29303 3.08398 4.1107V22.609C3.0839 22.7925 3.13293 22.9727 3.226 23.1308C3.31907 23.2889 3.45278 23.4193 3.61324 23.5082ZM5.13935 4.1107C5.13935 3.83814 5.24763 3.57675 5.44036 3.38402C5.63308 3.19129 5.89448 3.08302 6.16704 3.08302H18.4993C18.7718 3.08302 19.0332 3.19129 19.2259 3.38402C19.4187 3.57675 19.5269 3.83814 19.5269 4.1107V20.7592L12.8778 16.6032C12.7145 16.5012 12.5258 16.447 12.3331 16.447C12.1405 16.447 11.9518 16.5012 11.7885 16.6032L5.13935 20.7592V4.1107Z" fill="#464255"/>
</svg>
