<svg width="62" height="62" viewBox="0 0 62 62" fill="none" xmlns="http://www.w3.org/2000/svg">
<rect x="0.5" y="0.5" width="60.8118" height="60.8118" rx="18.5" stroke="#D0D5DE"/>
<path d="M23.1103 38.702H28.9573C28.9573 39.2189 29.1627 39.7146 29.5282 40.0801C29.8937 40.4457 30.3894 40.651 30.9063 40.651C31.4232 40.651 31.919 40.4457 32.2845 40.0801C32.65 39.7146 32.8553 39.2189 32.8553 38.702H38.7024C38.9609 38.702 39.2087 38.5993 39.3915 38.4166C39.5742 38.2338 39.6769 37.9859 39.6769 37.7275C39.6769 37.469 39.5742 37.2211 39.3915 37.0384C39.2087 36.8556 38.9609 36.753 38.7024 36.753V29.9314C38.7024 27.8637 37.881 25.8808 36.419 24.4187C34.9569 22.9567 32.974 22.1353 30.9063 22.1353C28.8387 22.1353 26.8557 22.9567 25.3937 24.4187C23.9316 25.8808 23.1103 27.8637 23.1103 29.9314V36.753C22.8518 36.753 22.6039 36.8556 22.4212 37.0384C22.2384 37.2211 22.1357 37.469 22.1357 37.7275C22.1357 37.9859 22.2384 38.2338 22.4212 38.4166C22.6039 38.5993 22.8518 38.702 23.1103 38.702ZM25.0593 29.9314C25.0593 28.3807 25.6753 26.8934 26.7718 25.7969C27.8684 24.7004 29.3556 24.0843 30.9063 24.0843C32.4571 24.0843 33.9443 24.7004 35.0408 25.7969C36.1374 26.8934 36.7534 28.3807 36.7534 29.9314V36.753H25.0593V29.9314Z" fill="#464255"/>
</svg>
