<?xml version="1.0" encoding="UTF-8"?>
<svg id="Layer_2" data-name="Layer 2" xmlns="http://www.w3.org/2000/svg" viewBox="0 0 981.31 946.35">
  <defs>
    <style>
      .cls-1 {
        fill: #354141;
      }

      .cls-2 {
        fill: #9f8643;
      }

      .cls-3 {
        fill: #fcfbf9;
      }

      .cls-4 {
        fill: #faf9f7;
      }

      .cls-5 {
        fill: #1c3244;
      }

      .cls-6 {
        fill: #9b803a;
      }

      .cls-7 {
        fill: #303e41;
      }

      .cls-8 {
        fill: #fbfbf9;
      }

      .cls-9 {
        fill: #4b4f3f;
      }

      .cls-10 {
        fill: #9a803a;
      }

      .cls-11 {
        fill: #9b813c;
      }

      .cls-12 {
        fill: #5d5a3e;
      }

      .cls-13 {
        fill: #9a7f3a;
      }

      .cls-14 {
        fill: #fefefd;
      }

      .cls-15 {
        fill: #ccbe9b;
      }

      .cls-16 {
        fill: #fcfcfa;
      }

      .cls-17 {
        fill: #9b803b;
      }

      .cls-18 {
        fill: #fdfdfc;
      }

      .cls-19 {
        fill: #776a3c;
      }

      .cls-20 {
        fill: #fefdfd;
      }

      .cls-21 {
        fill: #ccbf9c;
      }

      .cls-22 {
        fill: #404840;
      }

      .cls-23 {
        fill: #1b3143;
      }

      .cls-24 {
        fill: #313f41;
      }

      .cls-25 {
        fill: #fcfbfa;
      }

      .cls-26 {
        fill: #fefefe;
      }

      .cls-27 {
        fill: #71663d;
      }

      .cls-28 {
        fill: #fdfdfd;
      }

      .cls-29 {
        fill: #564521;
      }
    </style>
  </defs>
  <g id="Layer_1-2" data-name="Layer 1">
    <g>
      <path class="cls-26" d="M791.01,907.29H190.27s-.27,27.76-.27,27.76c-.6,6.39-5.49,11.21-12.13,10.85-6.17-.33-11.8-3.53-18.04-5.74-2.43,2.96-5.31,6.06-9.86,6.07l-135.7.11c-5.15,0-8.44-1.22-11.29-4.55-3.04-3.54-3.56-8.02-2.09-12.84l20.58-67.64L.59,793.03c-2.56-8.37,3.47-15.81,11.81-16.61l45.73-.18.21-26.67c.13-17.51,21.75-12.42,32.8-13.4l.11-352.6c0-3.81.58-6.68.86-10.5,3.32-45.42,13.56-90.14,31.8-132.11,36.76-84.6,100.36-153.12,182.12-195.89C369.16,12.06,443.77-3.83,514.97.78c93.89,6.08,179.85,42.75,248.77,107.03,40.06,37.36,71.76,82.75,93.66,133.16,18.24,41.97,28.48,86.7,31.8,132.11.28,3.82.86,6.68.86,10.5l.11,352.6c11.05.98,32.66-4.12,32.8,13.4l.21,26.67,45.73.18c8.33.8,14.37,8.24,11.81,16.61l-20.88,68.29,20.58,67.65c1.36,4.48,1.06,8.76-1.61,12.25-2.82,3.69-6.36,5.13-11.76,5.13l-134.78-.07c-4.91,0-8.2-2.6-10.78-6.16-6.25,2.32-11.87,5.44-18.04,5.78-6.63.37-11.53-4.48-12.12-10.84l-.31-27.78Z"/>
      <path class="cls-13" d="M911.53,895.49H69.81s-.07-147.33-.07-147.33l32.72-.35.11-350.39c.03-99.54,39.01-194.65,107.41-266.22C282.14,55.69,381.58,12.43,486.14,11.22c106.74-1.23,209,41.39,283.2,117.91,69.6,71.77,109.36,167.74,109.39,268.28l.11,350.39,32.72.36-.03,147.32Z"/>
      <g>
        <g>
          <polygon class="cls-10" points="150.56 934.85 10.72 935.33 33.15 861.42 10.71 787.98 60.97 787.88 60.96 901.5 150.56 934.85"/>
          <polygon class="cls-10" points="970.62 935.13 830.72 934.92 920.33 901.5 920.38 787.77 970.59 788 948.15 861.43 970.62 935.13"/>
          <polygon class="cls-29" points="884.82 904.86 802.84 935.29 802.5 904.21 884.82 904.86"/>
          <polygon class="cls-29" points="178.42 904.11 178.68 935.31 96.52 904.84 178.42 904.11"/>
          <g>
            <path class="cls-26" d="M332.3,812.28c-.17-1.16-.55-1.5-1.14-1-.49,3.35-13.8,29.11-14.9,29.94-.87.66-4.6,1.12-4.89-.19-2.29-10.43-2.04-20.66-3.75-31.05l-7.74,31.31c-.47,1.9-4.71,1.13-6.25.4l9.9-39.99c3.22-.78,6.02-.64,9.32-.08l2.89,30.4,14.89-30.31c3.18-.79,6.12-.5,9.51-.28l-5.29,40.46c-2.34.6-4.27.56-6.75.22l4.2-29.84Z"/>
            <path class="cls-26" d="M243.15,829.28c.86.33,1.49-.34,1.88-2l4.55-25.48c1.69-1.02,4.39-.66,6.38-.06l-7.38,40.05c-1.89.69-5.37,1.07-7.15.02l-11.23-30.5-5.79,30.37c-1.55,1.05-4.19.85-6.43.29l7.54-40.27c2.49-.56,5.85-.97,8.15.1,3.26,9,7.25,17.76,9.47,27.49Z"/>
            <path class="cls-14" d="M287.45,801.98c.55-1.7,5.02-.6,6.52-.27-1.72,9.34-3.1,18.57-5.52,27.8-2.14,8.19-8.85,13.26-17.29,12.7-20.75-1.37-8.37-26.67-7.05-40.49,2.11-.98,4.74-.57,6.74.03l-4.7,26.5c-.47,2.64.53,5.23,1.95,6.55,1.77,1.65,4.38,1.95,6.99,1.35,3.75-.86,5.99-4.38,6.77-8.04l5.58-26.13Z"/>
            <path class="cls-14" d="M480.64,841.8l3.21-18.61c.28-1.64-.22-3.48-1-4.17-1.14-1.01-2.95-1.26-4.6-.56-3.68,1.57-5.82,5.31-6.53,9.17l-2.66,14.45c-2.37.48-4.36.39-6.76-.21l5.31-29.44c2.16-.06,3.59-.58,4.99-.03,1.19.46.33,2.78.8,4.67,4.19-3.97,11.11-6.95,15.36-2.92,1.63,1.54,2.75,4.25,2.32,7.14-1.01,6.81-1.93,13.45-3.87,20.14-.52,1.79-5.18.85-6.58.36Z"/>
            <path class="cls-14" d="M390.09,836.55c1.42.2.59,5.33-.84,5.45-7.54.63-14.46.28-21.99.11l7.5-40.19c1.84-1.25,4.85-.82,6.87-.07l-6.2,34.13,14.65.58Z"/>
            <path class="cls-20" d="M541.97,813.63c1.25-2.54,5.53-1.48,7.77-.79l-15.48,28.48c-.88,1.62-6.57,1.73-7.25.03l-5.05-28.67c2.65-.8,4.68-.5,7.15-.21l2.83,21.43,10.02-20.26Z"/>
            <path class="cls-20" d="M653.94,817.51l-4.9,24.54c-2.29.52-4.42.47-6.6-.24l3.57-23.21c-.43-1.14-3.18-1.78-2.98-3.62.27-2.49,3.29-2,4.2-3.49,2.05-3.35,2.72-7.4,5.43-9.47,3.18-2.44,7.72-3.51,11.14-2.07.9.82.45,4.46-.91,4.86-1.84.53-5.05.36-6.18,2.04-.8,1.19-2.49,3.44-1.62,4.97,1.42,1.03,3.78-.25,4.79.93.83.97.13,2.94-.24,3.72-.59,1.22-2.52,1.48-5.69,1.05Z"/>
            <path class="cls-20" d="M806.08,817.69c-2.68,7.34-3.07,16.45-5.05,24.28-2.27.71-4.38.54-6.62-.17l3.79-23.14c-1.31-1.21-3.12-1.92-3.11-3.65.02-2.56,3.29-2.04,4.15-3.5,2.01-3.39,2.72-7.41,5.41-9.49,3.18-2.45,7.72-3.51,11.14-2.07.91.82.44,4.45-.9,4.86-1.89.57-5.05.34-6.18,2.03-.83,1.24-2.57,3.46-1.58,5.08l4.44.55c1.31.16.32,2.86.1,3.99-.29,1.52-3.26,1.06-5.6,1.24Z"/>
            <path class="cls-28" d="M437.87,835.21c.59,1.9,5.35.45,4.1,3.45-.79,1.91-.65,3.76-3.88,3.69-2.28-.05-4.41-.29-6-1.5-5.04-3.84.78-15.91.59-22.26-1.08-1.09-3.4-1.23-3.3-2.62.19-2.57,1.22-3.51,3.69-3.98,2.16-.41,1.3-3.21,2.03-4.74,1.15-2.43,4.57-2.46,6.96-2.36l-.96,7.24c1.92.78,4.41-.7,5.67.62,1.06,1.11.11,3.51-.59,4.32-1.03,1.19-4.48.15-5.93,1.01-1.16,4.52-4,11.91-2.38,17.14Z"/>
            <path class="cls-28" d="M821.87,835.19c.59,1.93,5.35.45,4.11,3.46-.79,1.91-.65,3.76-3.88,3.69-2.27-.05-4.41-.29-6-1.5-5.08-3.87.88-15.98.54-22.28-.87-1.07-3.39-1.18-3.25-2.61.25-2.56,1.19-3.51,3.69-3.98,2.15-.41,1.3-3.21,2.03-4.74,1.15-2.43,4.58-2.46,6.96-2.36.14,2.52-.83,4.33-.96,7.25,2,.7,4.28-.58,5.75.55.91,1.27.01,3.56-.66,4.39-.92,1.13-4.63.14-5.91,1.04-1.23,4.42-4.01,11.93-2.42,17.1Z"/>
            <path class="cls-28" d="M587.9,813.34c-.62,5.22-.43,6.44.55,3.68,2.26-2.07,4.74-5.15,8.98-4.61.63,1.04.35,5.37-1,6.04-4.38,1.2-8.07,3.05-9.13,7.96l-3.36,15.46c-1.78.96-5.05.71-6.64-.37l4.9-28.72c1.4-1.14,5-.84,5.69.55Z"/>
            <path class="cls-28" d="M702.9,813.34c-.62,5.22-.43,6.44.55,3.68,2.26-2.07,4.74-5.14,8.98-4.62.66,1.13.32,5.27-.98,6.08-4.43,1.1-8.09,3.06-9.14,7.93l-3.36,15.47c-1.78.96-5.05.71-6.64-.37l4.9-28.72c1.4-1.14,5-.84,5.69.55Z"/>
            <path class="cls-18" d="M785.36,841.5c-.4,1.53-4.64.82-6.61.5,1.64-9.66,3.06-18.96,5.38-28.82.43-1.84,5.08-.94,6.73-.4l-5.5,28.72Z"/>
            <path class="cls-18" d="M454.36,841.5c-.4,1.53-4.64.82-6.61.5,1.64-9.66,3.06-18.96,5.38-28.82.43-1.84,5.08-.94,6.73-.4l-5.5,28.72Z"/>
            <path class="cls-3" d="M504.91,833.46c-1.96,4.05-7.73,19.15-13.24,14.98l6.1-14.44c1.57-1.19,5.05-.88,7.14-.54Z"/>
            <path class="cls-3" d="M744.95,815.79c-2.48,1.14-4.7,1.27-7.12.68,2.41-4.25,7.66-18.63,12.59-14.41-2.12,4.71-3.89,8.5-5.47,13.73Z"/>
            <path class="cls-25" d="M734.36,815.31c-.95,2.18-4.8,1.45-6.64,1.21,1.19-2.98,7.44-18.92,12.42-14.47l-5.78,13.26Z"/>
            <path class="cls-25" d="M858.38,801.96c-2.6,4.89-6.73,17.37-12.46,14.45l5.97-13.68c.85-1.96,4.91-1.29,6.49-.77Z"/>
            <path class="cls-8" d="M848.15,801.74c-2.1,3.95-7.89,18.86-12.07,14.19,1.43-4.02,3.23-8.59,5.07-12.75,1.05-2.39,5.38-1.81,7-1.44Z"/>
            <path class="cls-14" d="M213.57,829.33c-4.73-.25-9.1.42-13.5-.38-1.22-.22-.46-4.46.99-4.53,4.53-.21,8.6-.46,13.24.19,1.07.15.56,3.38-.72,4.72Z"/>
            <path class="cls-25" d="M354.96,816.84c.43,2.92-1,4.76-2.57,5.35-2.03.76-4.27.5-5.43-1.19-1.07-1.55-1.02-3.92.29-5.68,1.12-1.5,2.67-2.08,4.32-1.91,1.33.14,3.03,1.04,3.39,3.42Z"/>
            <path class="cls-16" d="M350.81,838.97c-.89,2.69-3.61,3.77-5.95,3.04s-3.22-3.56-2.19-6.12,3.53-3.31,5.8-2.61c2.08.64,3.17,3.15,2.34,5.7Z"/>
            <path class="cls-4" d="M456.55,801.79c2-.94,4.25-.22,5.04,1.44.92,1.91.27,4.36-1.51,5.34s-4.48.82-5.44-1.21c-.87-1.83-.3-4.52,1.91-5.57Z"/>
            <path class="cls-4" d="M787.55,801.79c2-.94,4.25-.22,5.04,1.44.92,1.91.27,4.36-1.51,5.34s-4.48.82-5.44-1.21c-.87-1.83-.3-4.52,1.91-5.57Z"/>
            <path class="cls-15" d="M243.15,829.28c.66-.63,1.29-1.3,1.88-2,.07,2.37.26,3.91.05,6.04-2.52-.7-1.59-2.57-1.93-4.04Z"/>
            <path class="cls-21" d="M588.44,817.03c-.25.64.26,1.96-1.07,2.29-.35-2.39-.66-4.56.53-5.97.54,1.08.29,2.54.55,3.68Z"/>
            <path class="cls-21" d="M703.44,817.03c-.25.63.26,1.96-1.08,2.29-.35-2.39-.66-4.56.53-5.97.54,1.08.29,2.54.55,3.68Z"/>
            <path class="cls-21" d="M332.3,812.28l-1.14-1c.95-.99.8-1.82,1.35-3.09,1.94,1.32-.03,2.89-.2,4.09Z"/>
            <g>
              <path class="cls-14" d="M135.01,841.63c-6.05.92-11.66.91-17.99-.01l7.12-39.21c6.24-1.49,12.18-1.53,18.01-.23,8.29,1.85,12.5,8.89,11.99,17.09-.69,11.18-7.43,20.59-19.13,22.37Z"/>
              <path class="cls-6" d="M124.8,835.99l5.5-28.7c4.78-1.09,11.33-.98,14.27,3.68,4.48,7.11,1.64,17.64-4.92,22.55-4.24,3.17-9.42,3.6-14.85,2.47Z"/>
            </g>
            <g>
              <path class="cls-14" d="M194.8,812.63c2.26,9.96-2.21,23.77-12.22,27.79-6.47,2.6-13.09,2.62-18.36-1.22-6.16-4.48-6.71-12.16-5.45-19.16,2.28-12.61,13.13-21.12,25.8-18.07,5.26,1.26,9.03,5.4,10.22,10.66Z"/>
              <path class="cls-6" d="M183.52,832.14c-3.95,5.44-13.13,6.25-16.35.22-3.96-7.42-1.03-17.51,5.03-22.83,4.44-3.89,12.17-3.36,14.55,2.02,2.94,6.63,1.19,14.49-3.24,20.59Z"/>
            </g>
            <g>
              <path class="cls-20" d="M763.58,851.7c-6.47,4.16-17.85,2.66-18.3-.09-.15-.9.23-2.37,1.1-3.48,1.23-1.55,8.17,3.25,13.7-1.33,2.06-1.71,3.6-5.19,3.41-8.33-2.92,2.33-5.52,3.92-8.83,3.78-3.1-.13-6.49-1.9-7.79-5.64-2.58-7.44.57-15.83,6.58-20.53s14.57-4.93,21.43-1.47l-5.12,27.26c-.74,3.93-2.85,7.71-6.18,9.85Z"/>
              <path class="cls-17" d="M766.48,818.38c1.91,1.85-2.29,21.39-10.12,18.15-2.12-.88-3.16-2.69-3.19-5.26-.07-6.11,3.19-12.24,9.26-13.43,1.59-.31,3.36-.14,4.06.54Z"/>
            </g>
            <g>
              <path class="cls-20" d="M673.72,842.28c-8.16.36-13.02-5.73-12.51-12.98.63-9.02,6.83-16.35,15.89-17.02,7.41-.55,13.11,4.57,13.03,12.01-.09,9.27-6.43,17.55-16.41,17.99Z"/>
              <path class="cls-11" d="M682.83,823.5c.38,7.23-4.73,15.02-10.4,13.06-2.18-.75-3.87-2.75-3.98-5.45-.17-4.69,1.41-9.46,5.17-12.22,1.99-1.47,4.3-1.38,6.04-.64,1.92.81,3.03,2.74,3.17,5.25Z"/>
            </g>
            <g>
              <path class="cls-28" d="M559.92,835.98c6.64,3.48,11.82-4.28,11.88,2.81.03,3.17-14.26,6.25-19.38-.75-3.58-4.9-2.56-11.21.12-16.61,2.19-4.41,6.68-8.49,12.6-9.1,4.69-.49,8.91,1.78,10.04,5.55,1.42,4.74-.87,9.06-5.69,10.81-3.94,1.43-8,1.57-12.42,1.63-.43,2.93.96,4.68,2.84,5.67Z"/>
              <path class="cls-2" d="M568.36,822.6c-2.79,2.56-6.95,2.87-10.47,1.92,1.12-4.11,3.66-6.63,7.23-6.94,1.43-.13,2.61.38,3.21,1.07.73.83,1.2,2.87.02,3.96Z"/>
            </g>
            <g>
              <path class="cls-14" d="M628.11,822.78c-.42,12.32-9.94,21.09-21.58,19.17-4.36-.72-7.47-4.08-6.56-8.77l6.48-33.48c2.38-.64,4.37-.66,6.81-.2l-2.7,16.34c4.28-2.81,7.69-4.37,11.62-3.16,3.61,1.12,6.09,5.12,5.92,10.1Z"/>
              <path class="cls-11" d="M615.68,835.24c-1.92,1.75-6.63,2.8-7.72.27-2.07-4.82.35-10.98,3.34-14.98,2.07-2.78,7.21-3.71,8.7-.32,2.26,5.13-.09,11.15-4.32,15.03Z"/>
            </g>
            <g>
              <path class="cls-14" d="M415.65,841.86c-2.03-1.23-.48-4.54-.93-6.58-1.42,3.31-4.46,5.83-7.46,6.61-3.75.97-8.3.03-10.01-4.01-3.98-9.34,1.78-20.54,11.19-24.13,5.64-2.15,11.56-1.94,16.79.12-1.78,9.96-4.28,18.6-4.11,28.28-1.67-.04-3.55.87-5.47-.29Z"/>
              <path class="cls-11" d="M412.35,833.89c-2.01,2.71-6.22,4.26-8.05,1.33-2.43-3.88-.72-8.83,1.63-12.4s6.06-5.77,11.2-4.97c-.37,5.29-1.16,11.16-4.79,16.03Z"/>
            </g>
          </g>
        </g>
        <g>
          <path class="cls-26" d="M490.65,57.8c-61.98.01-121.05,14.75-173.83,46.01-102.85,60.91-171.66,172.12-171.92,292.62l-.76,351.28c-5.84.45-11.98.43-18.26.01v-349.35c0-83.39,28.86-163.88,80.88-228.22C276.37,84.07,380.72,34.49,490.65,34.49c110.16,0,214.75,49.78,284.35,136.24,51.48,63.95,80.37,143.87,80.38,226.65l.06,350.35c-6.35.41-12.4.44-18.31-.02l-.66-350.29c-.23-120.59-68.49-232.04-171.33-293.22-52.92-31.49-112.25-46.41-174.49-46.4Z"/>
          <g>
            <path class="cls-26" d="M830.3,747.86l-679.29.05.5-350.46c.17-120.61,69.9-231.8,173.94-290.92,50.87-28.91,107.27-42.15,165.71-42.07,58.04.09,114.16,13.29,164.69,42.08,104.06,59.08,173.78,170.32,173.95,290.9l.51,350.41Z"/>
            <path class="cls-5" d="M699.68,683.48c-1.23-16.43-2.5-31.79-4.68-48.77l-24.51,57.07c-2.25,3.57-9.77,4.32-11.72.18l-25.59-54.2c-2.21,16.18-3.34,30.98-4.05,46.53-.16,3.56,1.47,6.5,5.1,7.05.82.5,1.13.97,1.12,1.45-.02.95-.89,1.64-2.14,1.55-6.59-.47-17.54,1.03-17.62-1.56-.08-2.81,7.29-.36,8.3-8.75,2.16-17.93,3.46-35.63,4.58-53.74.6-9.74-12.29-6.54-7.86-10.25,1.59-1.33,16.31,1.02,22.94-.35l26.07,60.82,25.35-60.61c6.56.1,12.06.74,18.17-.78.78.38,1.75.34,2.25.54.54.22.97,1.21.6,1.96-1,2.02-7.43.5-6.82,7.67l4.75,55.05c.64,7.43,8.42,6.02,8.22,8.45-.09,1.07-1.66,1.96-2.97,1.79-8.53-1.13-16.46-1.16-24.97.02-.96.13-2.13-.63-2.54-1.17-2.22-2.92,8.65-1.73,8.03-9.98Z"/>
            <path class="cls-5" d="M511.29,689.71c-.03,2.65-.57,4.69-1.86,5.28-1.92.88-4.22.49-5.8-1.29l-50.56-56.98c-.66,15.73-.18,30.32.47,45.31.2,4.68,3.23,8.38,7.72,9.05,7.87,5.31-9.91,1.52-22.09,3.37-.86.13-1.68-.55-1.99-.85-3.51-3.37,9.09-.65,9.15-12.36l.27-51.99c.04-7.64-8.76-5.21-8.15-8.49.15-.78,1.48-1.78,2.73-1.52,6.1,1.27,11.75.76,17.75.65,2.92-.06,4.16,3.86,5.8,5.87,13.1,16.12,26.05,31.36,40.46,47.34.69-14.64.16-27.78-.46-41.4-.21-4.68-3.13-8.42-7.69-9.14-7.78-5.35,9.78-1.45,22.1-3.38,1.18-.19,2.25,1,2.24,1.59-.08,2.91-9.31,1.05-9.43,11.56l-.65,57.37Z"/>
            <path class="cls-5" d="M588.18,619.19c11.06,1.61,24.18-.97,23.98,1.63-.23,2.85-8.46.85-9.36,10.23-.99,10.39-.65,20.64-.76,31.22-.16,14.34-4.44,28.18-19.85,31.92-8.94,2.17-18.24,1.81-26.93-1.16-10.55-3.61-17.6-12.81-17.65-23.99l-.16-38.76c-.04-9.47-12.03-6.74-7.86-10.24.43-.36,1.54-.97,2.59-.81,8.54,1.23,16.46,1.08,24.96,0,1.24-.16,2.42.84,2.57,1.53.68,3.04-8.26,1.04-8.2,9.74l.25,36.17c.05,7.03,2.95,14.15,8.69,18.43,8.07,6.01,20.13,5.83,28.02-.47,4.84-3.87,7.01-10.33,7.43-16.44.84-12.4.2-24.46-.52-36.83-.54-9.4-9.2-7.73-9.33-10.57-.03-.57.95-1.77,2.14-1.6Z"/>
            <g>
              <path class="cls-23" d="M513.6,597.61c-9.21,1.03-17.43,8.81-26.4,8.7s-17.29-7.73-26.12-8.71l-18.24-2.03c-24.32-2.7-70.75-33.67-90.82-49.33-32.83-25.6-58.31-64.4-58.47-106.92l-.65-167.05c-4.38.54-9.45.93-13.37-1.23-4.66-2.57-6.32-7.5-4.64-11.62,3.89-9.53,14.61-3.55,16.69-4.07,1.11-.28,1.59-2.33,1.67-3.88.44-8.79,7.45-15.28,16.07-13.49,5.54,1.15,8.04,5.43,7.99,11.72,4.47-2.32,11.81-5.47,13.52-10.23,1.39-8.33,5.09-14.67,14.54-14.31,3.16.12,6.33.89,8.6,3.79,1.52,1.94,2.12,5.02,1.85,8.31,10.51-4.35,15.69-15.37,26.02-22,8.63-5.54,18.44-4.96,26.04,2.87,3.2-6.77,10-7.34,15.59-8.67,5.78-11.14,17.16-19.63,30.45-16.15,5.95-11.83,14.81-20.85,26.11-26.92,14.81-7.96,34.52,14.29,40.63,26.77,13.01-2.68,24.87,4.24,30.22,16.59,6.42.22,12.25,2.24,15.93,8.29,7.1-7.45,17.04-8.44,25.66-2.96,10.61,6.74,16.17,18.17,26.17,22.11.07-3.38.29-6.25,2.22-8.62,1.78-2.18,5.02-3.26,8.08-3.42,9.61-.49,13.22,5.79,14.85,14.18,1.22,4.75,8.88,7.99,13.54,10.28-.03-5.54,1.68-9.81,6.99-11.4,4.05-1.22,8.18-.35,11.37,1.98,9.27,6.75,2.02,18.07,10.82,14.6,5.23-2.06,10.91-.62,13.07,4.33,2.07,4.76-.17,9.96-5.4,12.33-3.77,1.71-8.64,1.33-12.45.79l-.78,168.09c-.2,41.95-25.72,80.22-57.96,105.56-20.08,15.78-66.93,46.99-91.34,49.71l-18.04,2.01Z"/>
              <g>
                <path class="cls-13" d="M532.15,590.44c-1.75.46-2.26.15-1-1.24,30.18-15.2,58.56-31.15,85.2-51.95,30.23-23.6,53.75-59.8,53.87-98.95l.55-180.05c-13.57,6.46-27.17-.16-34.53-10.91-13.56,7.61-24.9-.1-35.62-9.06-3.17,6.02-9.32,9.37-16.26,8.74-3.55-.32-6.44-2.33-7.38-5.06-1.03-2.96-.95-6.12,1.3-8.52,1.98-2.11,5.28-2.44,6.86-.67,1.87,2.1,1.15,5.06-.92,7.7,2.27,1.02,4.98.35,6.41-1.25,3.36-3.77-.52-11.46-6.08-14-3.42-1.56-6.96-.61-10.12,1.41l-19.52,12.51c-10.62,6.8-23.36,6.81-33.26-1.41-5.6-4.65-4.11-14.45.88-16.74,3.08-1.41,6.59-1.48,9.21.58,2.75,2.17,2.45,5.73.84,7.59-2.1,2.42-6.06-.3-7.87.59-1.98,1.63,1.85,5.43,4.45,5.35,5.59-.18,10.37-3.47,11.94-8.96,2.28-7.94-1.03-17.14-8.54-20.94-5.6-2.84-11.53-.37-16.58,3.35-5.85-11.45-15.94-30.39-28.76-33.4-13.35,3.52-22.62,22.03-28.74,33.42-5.08-3.93-10.93-6.04-16.43-3.4-6.39,3.07-9.51,10.07-9.3,17.13s5.32,12.61,12.33,12.73c3.38.06,6.03-2.95,5.27-5.98-3.02,1.05-6.64,2.14-8.65-.3s-.7-5.92,1.17-7.32,4.58-1.71,7.29-1.14c4.07.87,5.76,4.49,6.15,7.53.51,3.97-.5,7.53-3.5,9.98-9.76,7.95-22.32,8.25-32.76,1.56l-19.57-12.54c-3.35-2.14-7.11-3.31-10.68-1.53-2.79,1.39-5.73,4.19-6.73,7.98-.66,2.48-.53,5.22,1.65,6.67,1.25.83,3.58,1.52,5.65.42-2.1-2.55-2.9-5.41-1.06-7.5,1.63-1.86,4.78-1.58,6.88.42s2.33,5.15,1.57,8.11c-.49,1.92-2.35,4.33-5.26,5.1-7.34,1.96-14.79-1.27-18.58-8.14-10.79,8.7-21.7,16.6-35.6,9-7.68,11.03-21.11,17.15-34.62,10.9l.76,181c.16,39.03,24.06,74.89,54.09,98.27,26.72,20.8,55.18,36.59,84.59,51.62,1.18,1.48.65,1.82-1.08,1.21-9.56-3.27-19.49-4.86-28.2-9.82-20.85-11.88-40.55-23.54-59.64-38.65-31.17-24.67-55.74-61.8-55.9-102.43l-.69-176.08c-3.8,4.03-9.95,5.9-15.16,3.73-2.98-1.24-4.36-4.02-2.71-6.74,3.03-4.97,9.86,2.46,14.96-.92,4.76-3.15,1.39-12.01,7.46-15.74,2.59-1.59,6.44-1.99,8.98.48,1.66,1.61,1.03,4.19-.12,5.56-1.32,1.57-3.69.81-6.36,2.25,8.56,5.59,18.29,1.52,25.65-4.62,3.48-2.9,6.11-5.02,6.06-10.14-.04-4.63,4.23-7.58,8.72-7.31,2.65.16,4.96.76,5.63,3.07.57,1.98.15,4.26-1.54,5.69-1.35,1.16-3.97.34-5.61.37,1.38,8.14,16.33,3.46,22.7-2.8l15.02-14.75c4.54-4.46,12.08-7.78,17.5-4.03l13.2,9.14c.26-3.15-.62-6.21,1.5-8.27,1.34-1.3,3.37-3.43,6.85-2.96-2.63,4.86-2.95,10.04.26,14.58,4.9,6.92,13.41,11.64,21.71,9.85-7.91-1.38-13.88-5.21-15.74-12.96-2.47-10.26,2.28-21.08,11.25-26.67,5.73-3.57,12.13-3.51,18.75-.93,4.86-12.7,14.37-22.85,26.43-29.07,11.02-5.68,32.3,18.3,34.89,29.11,7.15-2.95,14.38-2.54,20.37,1.95,7.41,5.54,11.48,14.78,10.01,23.94s-8.26,13.9-17.34,14.54c8.66,2.22,17.77-2.41,22.9-9.72,3.1-4.41,3.06-9.66.33-14.38,2.85-.91,5.43,1.02,7.42,3.59,1.39,1.79,1.14,4.58.25,7.76,10.08-5.06,15.93-17.26,30.07-6.46,10.73,8.2,17.97,22.51,32.17,22.75,3.16.05,6.38-.58,7.17-4.1-4.07.76-7.14-.07-7.68-3.52-.43-2.78,1.01-5.17,4.52-5.64,4.85-.66,10.05,1.96,10.01,7.17s2.89,7.57,6.55,10.57c14.45,11.85,25.33,5.03,24.66,4.23-1.31-1.56-6.89-.04-6.94-5.17-.02-1.97,1.46-3.69,3.91-4.18,3.14-.62,5.68.47,7.68,2.45,3.64,3.59,1.66,12.28,6.23,14.64,5.14,2.66,12.74-4.61,14.89,1.28.96,2.64-.29,5.05-3.12,6.17-5.1,2.01-10.98.35-15.11-3.66l-.64,175.79c-.15,40.75-24.76,78.04-56.06,102.71-19.12,15.07-38.8,26.88-59.74,38.61-8.96,5.02-19,7.16-28.29,9.82Z"/>
                <path class="cls-13" d="M525.21,255.82c-8.8-1.76-26.48-6.17-30.95,2.78.94.77,3.2.4,3.79,1.76,1.19,2.73-.99,4.93-3.34,5.19-2.15.24-4.53-1.46-4.7-4.31-.48-8.15,6.22-13.57,14.12-13.38,8.96.22,17.42,1.27,26.09,3.42l35.11,7.78c32.99,7.31,66.3,6.28,100.49,7.6l-.2,162.47c-.06,50.01-29.45,93.82-71.34,119.19-33.82,20.48-69.57,41.62-107.08,53.79-37.91-12.56-73.54-33.49-107.6-54.27-41.65-25.41-70.58-69.29-70.63-118.96l-.14-162.26c34.67-1.24,68.07-.28,101.11-7.65l32.63-7.28c9.14-2.36,18.09-3.47,27.57-3.85,8.2-.33,15.28,5.43,14.44,13.81-.27,2.67-2.81,4.2-4.87,3.89s-4.23-2.39-3.24-5.02c.45-1.18,2.42-.87,3.74-1.9-3.92-9.75-26.87-3.85-35.32-1.52-42.24,11.46-85.8,13.48-129.85,15.4l-.62,146.04c-.22,51.16,24.56,97.82,68.38,124.18,33.97,20.43,66.19,39.8,104.41,53.06,36.84-12.6,71.21-32.72,104.45-52.98,39.46-24.05,67.72-65.35,67.81-112.66l.3-157.68c-46.45-1.97-90.6-4-134.59-16.63Z"/>
                <polygon class="cls-13" points="487.6 448.46 480.21 365.91 454.15 381.07 469.2 355.15 422.97 347.75 469.26 340.28 454.12 314.32 480.1 329.53 487.54 278.93 494.87 329.26 520.45 314.88 505.82 340.27 550.61 347.7 505.81 355.17 520.39 380.51 494.81 365.9 487.6 448.46"/>
                <path class="cls-13" d="M491.84,239.21c-3.15.94-6.1.97-9.8-.1.92-1.25,2.39-2,2.37-3.78l-.2-17.69c-4.33.02-15.81-1.36-18.38,1.54-.81-3.03-.78-6.08.02-9.5,1.99,2.99,13.33,1.78,18.36,1.68.02-4.74,1.33-16-1.7-17.87,3.38-.79,6.13-.84,9.59,0-2.91,2.44-1.59,12.96-1.56,17.85,4.39,0,16.25,1.55,18.33-1.8.58,3.3.65,5.97.08,9.87-2.59-3.25-13.59-1.75-18.45-1.75l-.22,16.68c-.02,1.75.61,2.87,1.56,4.87Z"/>
                <path class="cls-27" d="M532.15,590.44c-1.59.46-2.88,1.96-4.12.14,1.71-.16,2.28-.97,3.12-1.39.31.43.65.85,1,1.24Z"/>
                <path class="cls-19" d="M442.07,590.37c.4-.37.76-.77,1.08-1.21,1.2.61,1.62,1.25,3.09,1.53-1.27,1.21-3.08.66-4.17-.32Z"/>
                <g>
                  <path class="cls-13" d="M581.14,383.43c1.52-1.78,1.19-2.15-.98-1.12-.35-.16-.9.03-1.13-.22-1.27-1.37.27-16.88.65-20.24.71-6.36,3.66-12.39,10.57-14.9l-.59,40.37c-.1,6.71-4.89,13.48-8.1,19.26-6.49,11.7-23.65,20.12-34.4,26.58-.51.66-.15,1.07,1.09,1.22,9.01-3.6,17.67-8.23,25.6-14.4,15.57-12.13,13.61-22.13,21.3-34.68,2.81-4.59,7.38-8.46,12.99-8.63,3.63-.11,5.72,4.36,4.88,7.48l-3.04,11.21c-1.58-.42-1.54-2.09-3.3-2.12,6.39,23.52-16.54,32.94-19.08,56.71,4.1-6.49,4.91-13.14,9.88-18.4,3.36-6.68,9.1-12.03,11.34-19.41,3.22-10.64,6.02-21.62,6.98-32.72.36-4.14-6.31-5.4-8.64-6.87.01-4.07,2.31-6.99,3.04-10.14.2-1.22-.09-1.63-1.1-1.07l-1.11.5c-1.51-3.7-.27-6.99-.05-10.65.42-7.23.84-35.29,14.12-31.39-1.55,18.23,3.47,45.03,1.87,61.55-1.68,17.41-4.32,34.26-8.82,51.08-4.96,18.55-37.29,38.06-50.44,53.21-14.81,17.05-4.91,33.04-2.83,53.43l-51.67,21.65c-1.03-10.77.78-20.29,1.03-30.48.78-31.48-10.4-53.01,8.62-78.34,18.42-24.54,41.28-29.59,47.72-39.14,5.26-7.8,5.11-24.13,13.63-29.33Z"/>
                  <path class="cls-13" d="M604.12,370.91c-1.32,5.36-6.62,8.17-10.9,11.16.05-13.18-.66-25.6.2-38.78.44-6.81,6.48-13.15,12.77-15.51,1.3,4.62-.49,8.84-.33,13.54.33,9.74.72,19.59-1.75,29.58Z"/>
                  <path class="cls-24" d="M548.24,434.39c-1.9.76-3.24,3.29-6.29,2.67,1.7-1.67,3.43-2.82,5.2-3.88.33.44.69.84,1.09,1.22Z"/>
                  <path class="cls-7" d="M610.18,362.42c.18-.78-.49-.92-1.1-1.07.67-1.16,1.47-2.3,2.88-3.17.98,2.37-1.48,2.92-1.78,4.24Z"/>
                  <path class="cls-12" d="M581.14,383.43c-.29-.35-.54-.92-.98-1.12.92-.98,1.95-2.39,4.09-1.86-.94,1.39-1.96,2.28-3.11,2.99Z"/>
                </g>
                <g>
                  <path class="cls-13" d="M364.31,359.3c-1.88-1.54-2.3-1.51-1.27.08,1.18,4.4,4.65,8.29,4.46,13.28-2.43,1.3-8.88,2.72-8.53,6.68.97,11.17,3.62,22.29,7.07,32.98,2.18,6.74,6.92,12.39,10.82,18.01,4.23,6.09,6.28,12.17,10.38,19.37-1.8-10.84-7.39-20.32-13.83-29.54-5.81-8.31-7.95-17.56-5.37-27.59-1.7.21-1.48,1.84-3.2,2.67l-2.96-10.02c-.93-3.15.43-8.27,4.3-8.46,5.32-.27,10.02,3.5,12.83,7.71,11.61,17.35,2.6,30.59,49.05,50.84,1.17-.1,1.54-.47,1.09-1.13l-19.34-11.65c-6.68-4.03-12.92-9.09-16.76-16.13-3.06-5.62-7.85-12.16-7.94-18.71l-.56-40.81c13.7,4.87,10.76,24.96,11.65,35.41.12,1.52-3.05.09-3.25-.2-.11-.16,3.5.86,2.29,2.22,7.65,9.28,6.94,20.46,11.8,28.22,6.06,9.66,30.34,15.06,48.56,40.33,17.87,24.8,7.49,45.41,7.9,75.45.15,10.83,1.98,20.96,1.27,32.39l-51.79-21.45c1.62-19.94,11.84-35.62-2.2-52.7-12.51-15.22-46.04-35.27-51-53.67s-7.69-35.63-9.09-53.95c-1.22-15.9,3.6-41.31,1.94-58.97,15.01-5.44,14.5,34.27,14.52,42.04-1.76-.56-2.08-1.81-2.84-2.69Z"/>
                  <path class="cls-13" d="M381.67,381.93c-4.77-2.4-9.41-5.82-11.14-11.01-3.29-9.89.41-28.93-2.52-41.49,4.91-3.67,13.11,9.04,13.4,13.44.84,12.9.11,25.19.26,39.06Z"/>
                  <path class="cls-22" d="M428.06,435.3c.41-.33.78-.71,1.09-1.13,1.77,1.07,3.51,2.2,5.2,3.88-3.09.64-4.41-1.93-6.29-2.75Z"/>
                  <path class="cls-1" d="M396.2,382.28l-.96,2.02c-.82-.99-2.64-1.1-3.12-2.95,1.88-.35,2.79.91,4.08.93Z"/>
                  <path class="cls-9" d="M364.31,359.3l-1.27.08c-.4-.84-2.91-1.07-1.63-3.2,1.38.88,2.01,2.1,2.9,3.12Z"/>
                </g>
              </g>
            </g>
            <g>
              <path class="cls-5" d="M412.36,691.88c-13.45,5.31-28,5.13-41.01.15-14.8-5.66-23.15-19.13-23.26-34.74s8.94-30.2,24.51-35.73c12.61-4.48,26.4-4.41,38.92.27,15.16,5.67,23.96,19.4,23.82,35.47s-8.07,28.69-22.98,34.58Z"/>
              <path class="cls-26" d="M413.14,677.72c-4.89,7.72-12.75,11.89-20.68,12.17-8.47.3-16.6-3.95-21.65-11.4-8.7-12.83-8.68-30.48,0-43.37,4.89-7.27,12.72-11.44,20.84-11.46s15.94,4.09,20.86,11.31c8.51,12.47,8.96,29.59.63,42.75Z"/>
            </g>
            <g>
              <path class="cls-5" d="M309.09,693.33c-17.17,3.37-28.61-1.43-46.97,1.28-1.06.16-2.25-.53-2.63-.97-3.05-3.51,8.11-.8,8.1-10.38l-.02-52.97c0-8.46-8.7-6.41-8.4-9.46.06-.56.98-1.68,2.07-1.6,13.8,1,27.03.12,40.9.15,11.76.03,23,4.79,29.74,14.07,6.2,8.54,6.87,18.85,5.61,29.02-1.96,15.84-12.64,27.76-28.39,30.85Z"/>
              <path class="cls-26" d="M319.95,672.18c-5.63,16.81-20.92,17.46-35.53,16.62-1.71-.1-2.81-2.21-2.82-3.89l-.08-54.6c0-2.87,1.27-4.94,4.25-5.51,14.03-2.71,31.22,1.45,35.29,17.73,2.45,9.79,2.09,20.1-1.11,29.66Z"/>
            </g>
          </g>
        </g>
      </g>
    </g>
  </g>
</svg>