<svg width="28" height="28" viewBox="0 0 28 28" fill="none" xmlns="http://www.w3.org/2000/svg">
<path d="M18.1647 13.6148C19.163 12.763 19.8761 11.6255 20.2079 10.3559C20.5397 9.0862 20.4742 7.74533 20.0203 6.51403C19.5663 5.28273 18.7458 4.22021 17.6693 3.46972C16.5927 2.71923 15.312 2.31686 13.9997 2.31686C12.6874 2.31686 11.4066 2.71923 10.3301 3.46972C9.25355 4.22021 8.43302 5.28273 7.97909 6.51403C7.52517 7.74533 7.45969 9.0862 7.79149 10.3559C8.12328 11.6255 8.83639 12.763 9.83468 13.6148C7.62999 14.4574 5.7327 15.9488 4.39336 17.8922C3.05402 19.8356 2.33561 22.1395 2.33301 24.4998C2.33301 24.8092 2.45592 25.1059 2.67472 25.3247C2.89351 25.5435 3.19026 25.6664 3.49967 25.6664C3.80909 25.6664 4.10584 25.5435 4.32463 25.3247C4.54343 25.1059 4.66634 24.8092 4.66634 24.4998C4.66634 22.0244 5.64967 19.6504 7.40001 17.9001C9.15035 16.1498 11.5243 15.1664 13.9997 15.1664C16.475 15.1664 18.849 16.1498 20.5993 17.9001C22.3497 19.6504 23.333 22.0244 23.333 24.4998C23.333 24.8092 23.4559 25.1059 23.6747 25.3247C23.8935 25.5435 24.1903 25.6664 24.4997 25.6664C24.8091 25.6664 25.1058 25.5435 25.3246 25.3247C25.5434 25.1059 25.6663 24.8092 25.6663 24.4998C25.6637 22.1395 24.9453 19.8356 23.606 17.8922C22.2666 15.9488 20.3694 14.4574 18.1647 13.6148ZM13.9997 12.8331C13.1921 12.8331 12.4026 12.5936 11.7311 12.1449C11.0596 11.6962 10.5362 11.0585 10.2272 10.3124C9.91811 9.56625 9.83725 8.74523 9.9948 7.95314C10.1524 7.16105 10.5413 6.43347 11.1123 5.86241C11.6834 5.29134 12.411 4.90244 13.2031 4.74489C13.9951 4.58733 14.8162 4.66819 15.5623 4.97725C16.3084 5.28631 16.9462 5.80968 17.3948 6.48118C17.8435 7.15268 18.083 7.94215 18.083 8.74976C18.083 9.83273 17.6528 10.8713 16.887 11.6371C16.1213 12.4029 15.0826 12.8331 13.9997 12.8331Z" fill="#A2A2A2"/>
</svg>
