<svg width="62" height="62" viewBox="0 0 62 62" fill="none" xmlns="http://www.w3.org/2000/svg">
<rect x="0.5" y="0.5" width="60.8118" height="60.8118" rx="18.5" stroke="#D0D5DE"/>
<path d="M22.6376 41.5037C22.7898 41.588 22.9618 41.63 23.1358 41.6254C23.3097 41.6208 23.4792 41.5697 23.6267 41.4774L30.9063 36.9274L38.1859 41.4774C38.3334 41.5696 38.5029 41.6206 38.6768 41.6252C38.8507 41.6297 39.0227 41.5877 39.1748 41.5033C39.327 41.419 39.4538 41.2955 39.5421 41.1456C39.6304 40.9957 39.6769 40.8249 39.6769 40.651V23.1098C39.6769 22.3344 39.3689 21.5908 38.8206 21.0426C38.2724 20.4943 37.5288 20.1863 36.7534 20.1863H25.0593C24.2839 20.1863 23.5403 20.4943 22.992 21.0426C22.4438 21.5908 22.1357 22.3344 22.1357 23.1098V40.651C22.1357 40.825 22.1822 40.9958 22.2704 41.1458C22.3587 41.2957 22.4855 41.4193 22.6376 41.5037ZM24.0848 23.1098C24.0848 22.8514 24.1874 22.6035 24.3702 22.4207C24.5529 22.238 24.8008 22.1353 25.0593 22.1353H36.7534C37.0118 22.1353 37.2597 22.238 37.4425 22.4207C37.6252 22.6035 37.7279 22.8514 37.7279 23.1098V38.8969L31.4228 34.956C31.2679 34.8592 31.089 34.8078 30.9063 34.8078C30.7237 34.8078 30.5447 34.8592 30.3898 34.956L24.0848 38.8969V23.1098Z" fill="#464255"/>
</svg>
