<svg width="62" height="62" viewBox="0 0 62 62" fill="none" xmlns="http://www.w3.org/2000/svg">
<rect x="0.5" y="0.5" width="60.8118" height="60.8118" rx="18.5" stroke="#D0D5DE"/>
<path d="M30.9062 30.9057C31.4444 30.9057 31.8807 30.4694 31.8807 29.9312C31.8807 29.393 31.4444 28.9567 30.9062 28.9567C30.3679 28.9567 29.9316 29.393 29.9316 29.9312C29.9316 30.4694 30.3679 30.9057 30.9062 30.9057Z" fill="#464255"/>
<path d="M27.0077 30.9057C27.5459 30.9057 27.9822 30.4694 27.9822 29.9312C27.9822 29.393 27.5459 28.9567 27.0077 28.9567C26.4695 28.9567 26.0332 29.393 26.0332 29.9312C26.0332 30.4694 26.4695 30.9057 27.0077 30.9057Z" fill="#464255"/>
<path d="M34.8036 30.9057C35.3418 30.9057 35.7781 30.4694 35.7781 29.9312C35.7781 29.393 35.3418 28.9567 34.8036 28.9567C34.2654 28.9567 33.8291 29.393 33.8291 29.9312C33.8291 30.4694 34.2654 30.9057 34.8036 30.9057Z" fill="#464255"/>
<path d="M22.1844 40.5243C22.3884 40.6085 22.607 40.6515 22.8276 40.651C23.0452 40.6521 23.2608 40.6095 23.4617 40.5258C23.6625 40.4421 23.8446 40.319 23.997 40.1637L26.4333 37.7275H35.7788C37.0711 37.7275 38.3105 37.2141 39.2243 36.3003C40.138 35.3866 40.6514 34.1472 40.6514 32.8549V27.0079C40.6514 25.7156 40.138 24.4762 39.2243 23.5625C38.3105 22.6487 37.0711 22.1353 35.7788 22.1353H26.0338C24.7415 22.1353 23.5021 22.6487 22.5883 23.5625C21.6746 24.4762 21.1612 25.7156 21.1612 27.0079V38.9846C21.1581 39.3142 21.254 39.6371 21.4364 39.9116C21.6188 40.1861 21.8794 40.3995 22.1844 40.5243ZM23.1102 27.0079C23.1102 26.2325 23.4182 25.4889 23.9665 24.9406C24.5148 24.3923 25.2584 24.0843 26.0338 24.0843H35.7788C36.5542 24.0843 37.2978 24.3923 37.8461 24.9406C38.3944 25.4889 38.7024 26.2325 38.7024 27.0079V32.8549C38.7024 33.6303 38.3944 34.3739 37.8461 34.9222C37.2978 35.4704 36.5542 35.7785 35.7788 35.7785H26.0338C25.9055 35.7777 25.7784 35.8023 25.6596 35.8508C25.5409 35.8993 25.4329 35.9707 25.3419 36.0611L23.1102 38.3024V27.0079Z" fill="#464255"/>
</svg>
