<svg width="25" height="25" viewBox="0 0 25 25" fill="none" xmlns="http://www.w3.org/2000/svg">
<path d="M7.19338 12.3324V16.4431C7.19338 16.7157 7.30165 16.9771 7.49438 17.1698C7.68711 17.3625 7.9485 17.4708 8.22106 17.4708H12.3318C12.4671 17.4716 12.6011 17.4457 12.7263 17.3945C12.8515 17.3434 12.9654 17.268 13.0615 17.1728L20.5533 9.69123C21.2098 9.02583 21.5778 8.12869 21.5778 7.19396C21.5778 6.25923 21.2098 5.36209 20.5533 4.69669L19.9675 4.11091C19.2922 3.47349 18.3988 3.11841 17.4702 3.11841C16.5416 3.11841 15.6482 3.47349 14.9729 4.11091L7.49141 11.6027C7.39616 11.6988 7.3208 11.8126 7.26966 11.9378C7.21852 12.0631 7.19259 12.1971 7.19338 12.3324ZM9.24875 12.7537L16.4425 5.55994C16.7208 5.29837 17.0883 5.15274 17.4702 5.15274C17.8521 5.15274 18.2197 5.29837 18.4979 5.55994L19.0734 6.13545C19.3445 6.40877 19.4966 6.77815 19.4966 7.16313C19.4966 7.54811 19.3445 7.91749 19.0734 8.19081L11.8796 15.3846H9.24875V12.7537Z" fill="#464255"/>
<path d="M20.5546 12.3322C20.2821 12.3322 20.0207 12.4405 19.8279 12.6332C19.6352 12.826 19.5269 13.0874 19.5269 13.3599V18.4983C19.5269 18.7709 19.4187 19.0323 19.2259 19.225C19.0332 19.4177 18.7718 19.526 18.4993 19.526H6.16704C5.89448 19.526 5.63308 19.4177 5.44036 19.225C5.24763 19.0323 5.13935 18.7709 5.13935 18.4983V6.16612C5.13935 5.89356 5.24763 5.63217 5.44036 5.43944C5.63308 5.24671 5.89448 5.13844 6.16704 5.13844H11.3055C11.578 5.13844 11.8394 5.03016 12.0321 4.83744C12.2249 4.64471 12.3331 4.38331 12.3331 4.11075C12.3331 3.83819 12.2249 3.5768 12.0321 3.38407C11.8394 3.19134 11.578 3.08307 11.3055 3.08307H6.16704C5.34936 3.08307 4.56517 3.40789 3.98699 3.98607C3.40881 4.56426 3.08398 5.34845 3.08398 6.16612V18.4983C3.08398 19.316 3.40881 20.1002 3.98699 20.6784C4.56517 21.2566 5.34936 21.5814 6.16704 21.5814H18.4993C19.3169 21.5814 20.1011 21.2566 20.6793 20.6784C21.2575 20.1002 21.5823 19.316 21.5823 18.4983V13.3599C21.5823 13.0874 21.474 12.826 21.2813 12.6332C21.0886 12.4405 20.8272 12.3322 20.5546 12.3322Z" fill="#464255"/>
</svg>
