<svg width="25" height="25" viewBox="0 0 25 25" fill="none" xmlns="http://www.w3.org/2000/svg">
<path d="M3.08239 22.6093H7.19313C7.32838 22.61 7.46245 22.5841 7.58766 22.533C7.71287 22.4818 7.82676 22.4065 7.92278 22.3112L20.255 9.97902C20.3513 9.88348 20.4278 9.76982 20.4799 9.64459C20.5321 9.51935 20.559 9.38503 20.559 9.24936C20.559 9.1137 20.5321 8.97937 20.4799 8.85414C20.4278 8.72891 20.3513 8.61524 20.255 8.51971L16.1443 4.40897C16.0487 4.31264 15.9351 4.23619 15.8098 4.18402C15.6846 4.13184 15.5503 4.10498 15.4146 4.10498C15.2789 4.10498 15.1446 4.13184 15.0194 4.18402C14.8941 4.23619 14.7805 4.31264 14.6849 4.40897L2.35273 16.7412C2.25749 16.8372 2.18213 16.9511 2.13099 17.0763C2.07985 17.2015 2.05392 17.3356 2.0547 17.4708V21.5816C2.0547 21.8541 2.16298 22.1155 2.35571 22.3083C2.54843 22.501 2.80983 22.6093 3.08239 22.6093ZM4.11007 17.8922L15.4146 6.58766L18.0763 9.24936L6.77178 20.5539H4.11007V17.8922Z" fill="#464255"/>
<path d="M18.201 2.35338C18.1052 2.25756 17.9914 2.18155 17.8662 2.1297C17.741 2.07784 17.6069 2.05115 17.4713 2.05115C17.1977 2.05115 16.9352 2.15986 16.7417 2.35338C16.5482 2.5469 16.4395 2.80936 16.4395 3.08304C16.4395 3.35671 16.5482 3.61918 16.7417 3.81269L20.8524 7.92343C20.948 8.01976 21.0616 8.09621 21.1869 8.14838C21.3121 8.20056 21.4464 8.22742 21.5821 8.22742C21.7177 8.22742 21.8521 8.20056 21.9773 8.14838C22.1025 8.09621 22.2162 8.01976 22.3117 7.92343C22.4081 7.8279 22.4845 7.71423 22.5367 7.589C22.5889 7.46377 22.6157 7.32944 22.6157 7.19378C22.6157 7.05811 22.5889 6.92379 22.5367 6.79855C22.4845 6.67332 22.4081 6.55966 22.3117 6.46412L18.201 2.35338Z" fill="#464255"/>
</svg>
