<svg width="25" height="25" viewBox="0 0 25 25" fill="none" xmlns="http://www.w3.org/2000/svg">
<path d="M4.11167 7.19376V19.526C4.11167 20.3436 4.43649 21.1278 5.01467 21.706C5.59286 22.2842 6.37705 22.609 7.19472 22.609H17.4716C18.2892 22.609 19.0734 22.2842 19.6516 21.706C20.2298 21.1278 20.5546 20.3436 20.5546 19.526V7.19376C20.8272 7.19376 21.0886 7.08548 21.2813 6.89275C21.474 6.70003 21.5823 6.43863 21.5823 6.16607C21.5823 5.89351 21.474 5.63212 21.2813 5.43939C21.0886 5.24666 20.8272 5.13839 20.5546 5.13839H16.4439V4.1107C16.4439 3.29303 16.1191 2.50884 15.5409 1.93065C14.9627 1.35247 14.1785 1.02765 13.3608 1.02765H11.3055C10.4878 1.02765 9.7036 1.35247 9.12541 1.93065C8.54723 2.50884 8.22241 3.29303 8.22241 4.1107V5.13839H4.11167C3.83911 5.13839 3.57771 5.24666 3.38499 5.43939C3.19226 5.63212 3.08398 5.89351 3.08398 6.16607C3.08398 6.43863 3.19226 6.70003 3.38499 6.89275C3.57771 7.08548 3.83911 7.19376 4.11167 7.19376ZM10.2778 4.1107C10.2778 3.83814 10.3861 3.57675 10.5788 3.38402C10.7715 3.19129 11.0329 3.08302 11.3055 3.08302H13.3608C13.6334 3.08302 13.8948 3.19129 14.0875 3.38402C14.2802 3.57675 14.3885 3.83814 14.3885 4.1107V5.13839H10.2778V4.1107ZM6.16704 7.19376H18.4993V19.526C18.4993 19.7985 18.391 20.0599 18.1983 20.2527C18.0055 20.4454 17.7441 20.5537 17.4716 20.5537H7.19472C6.92216 20.5537 6.66077 20.4454 6.46804 20.2527C6.27531 20.0599 6.16704 19.7985 6.16704 19.526V7.19376Z" fill="#464255"/>
<path d="M9.24839 18.4983C9.52095 18.4983 9.78234 18.39 9.97507 18.1973C10.1678 18.0046 10.2761 17.7432 10.2761 17.4706V10.2768C10.2761 10.0043 10.1678 9.74288 9.97507 9.55015C9.78234 9.35742 9.52095 9.24915 9.24839 9.24915C8.97583 9.24915 8.71443 9.35742 8.5217 9.55015C8.32898 9.74288 8.2207 10.0043 8.2207 10.2768V17.4706C8.2207 17.7432 8.32898 18.0046 8.5217 18.1973C8.71443 18.39 8.97583 18.4983 9.24839 18.4983Z" fill="#464255"/>
<path d="M15.4144 18.4983C15.687 18.4983 15.9484 18.39 16.1411 18.1973C16.3338 18.0046 16.4421 17.7432 16.4421 17.4706V10.2768C16.4421 10.0043 16.3338 9.74288 16.1411 9.55015C15.9484 9.35742 15.687 9.24915 15.4144 9.24915C15.1418 9.24915 14.8805 9.35742 14.6877 9.55015C14.495 9.74288 14.3867 10.0043 14.3867 10.2768V17.4706C14.3867 17.7432 14.495 18.0046 14.6877 18.1973C14.8805 18.39 15.1418 18.4983 15.4144 18.4983Z" fill="#464255"/>
</svg>
