<svg width="28" height="28" viewBox="0 0 28 28" fill="none" xmlns="http://www.w3.org/2000/svg">
<path d="M22.388 19.495C22.9938 18.7719 23.328 17.8599 23.333 16.9166C23.333 15.8337 22.9028 14.795 22.137 14.0293C21.3713 13.2635 20.3326 12.8333 19.2497 12.8333H18.923C19.8851 11.6899 20.4139 10.2443 20.4163 8.74996C20.4191 7.6726 20.1505 6.61189 19.6353 5.66566C19.1202 4.71943 18.3751 3.91814 17.4688 3.33568C16.5624 2.75322 15.524 2.40834 14.4493 2.33285C13.3746 2.25736 12.2982 2.45369 11.3193 2.90373C10.3404 3.35377 9.49064 4.04303 8.84829 4.90796C8.20594 5.77288 7.7917 6.78562 7.64379 7.85279C7.49588 8.91995 7.61905 10.0072 8.00194 11.0142C8.38483 12.0212 9.01512 12.9156 9.83468 13.615C7.62998 14.4576 5.7327 15.949 4.39336 17.8924C3.05402 19.8358 2.33561 22.1397 2.33301 24.5C2.33301 24.8094 2.45592 25.1061 2.67472 25.3249C2.89351 25.5437 3.19026 25.6666 3.49967 25.6666C3.80909 25.6666 4.10584 25.5437 4.32463 25.3249C4.54343 25.1061 4.66634 24.8094 4.66634 24.5C4.66634 22.0246 5.64967 19.6506 7.40001 17.9003C9.15035 16.15 11.5243 15.1666 13.9997 15.1666H15.5747C15.2329 15.862 15.1017 16.642 15.197 17.4109C15.2923 18.1798 15.6101 18.9041 16.1113 19.495C15.1174 20.0509 14.2897 20.8618 13.7135 21.844C13.1372 22.8263 12.8333 23.9445 12.833 25.0833C12.833 25.3927 12.9559 25.6895 13.1747 25.9082C13.3935 26.127 13.6903 26.25 13.9997 26.25C14.3091 26.25 14.6058 26.127 14.8246 25.9082C15.0434 25.6895 15.1663 25.3927 15.1663 25.0833C15.1663 24.0003 15.5965 22.9617 16.3623 22.1959C17.1281 21.4302 18.1667 21 19.2497 21C20.3326 21 21.3713 21.4302 22.137 22.1959C22.9028 22.9617 23.333 24.0003 23.333 25.0833C23.333 25.3927 23.4559 25.6895 23.6747 25.9082C23.8935 26.127 24.1903 26.25 24.4997 26.25C24.8091 26.25 25.1058 26.127 25.3246 25.9082C25.5434 25.6895 25.6663 25.3927 25.6663 25.0833C25.666 23.9445 25.3621 22.8263 24.7859 21.844C24.2096 20.8618 23.3819 20.0509 22.388 19.495ZM13.9997 12.8333C13.1921 12.8333 12.4026 12.5938 11.7311 12.1451C11.0596 11.6964 10.5362 11.0587 10.2272 10.3126C9.91811 9.56645 9.83724 8.74543 9.9948 7.95334C10.1524 7.16125 10.5413 6.43367 11.1123 5.8626C11.6834 5.29154 12.411 4.90264 13.2031 4.74508C13.9951 4.58753 14.8162 4.66839 15.5623 4.97745C16.3084 5.28651 16.9462 5.80988 17.3948 6.48138C17.8435 7.15288 18.083 7.94235 18.083 8.74996C18.083 9.83292 17.6528 10.8715 16.887 11.6373C16.1213 12.4031 15.0826 12.8333 13.9997 12.8333ZM19.2497 18.6666C18.7855 18.6666 18.3404 18.4822 18.0122 18.1541C17.684 17.8259 17.4997 17.3808 17.4997 16.9166C17.5027 16.4534 17.6881 16.0101 18.0156 15.6826C18.3431 15.355 18.7865 15.1697 19.2497 15.1666C19.7138 15.1666 20.1589 15.351 20.4871 15.6792C20.8153 16.0074 20.9997 16.4525 20.9997 16.9166C20.9997 17.3808 20.8153 17.8259 20.4871 18.1541C20.1589 18.4822 19.7138 18.6666 19.2497 18.6666Z" fill="#A2A2A2"/>
</svg>
