<svg width="25" height="25" viewBox="0 0 25 25" fill="none" xmlns="http://www.w3.org/2000/svg">
<path d="M4.11167 11.3045H10.2778C10.5503 11.3045 10.8117 11.1963 11.0045 11.0035C11.1972 10.8108 11.3055 10.5494 11.3055 10.2769V4.11075C11.3055 3.83819 11.1972 3.5768 11.0045 3.38407C10.8117 3.19134 10.5503 3.08307 10.2778 3.08307H4.11167C3.83911 3.08307 3.57771 3.19134 3.38499 3.38407C3.19226 3.5768 3.08398 3.83819 3.08398 4.11075V10.2769C3.08398 10.5494 3.19226 10.8108 3.38499 11.0035C3.57771 11.1963 3.83911 11.3045 4.11167 11.3045ZM5.13935 5.13844H9.25009V9.24918H5.13935V5.13844Z" fill="#464255"/>
<path d="M14.3871 11.3045H20.5532C20.8257 11.3045 21.0871 11.1963 21.2798 11.0035C21.4726 10.8108 21.5808 10.5494 21.5808 10.2769V4.11075C21.5808 3.83819 21.4726 3.5768 21.2798 3.38407C21.0871 3.19134 20.8257 3.08307 20.5532 3.08307H14.3871C14.1145 3.08307 13.8531 3.19134 13.6604 3.38407C13.4676 3.5768 13.3594 3.83819 13.3594 4.11075V10.2769C13.3594 10.5494 13.4676 10.8108 13.6604 11.0035C13.8531 11.1963 14.1145 11.3045 14.3871 11.3045ZM15.4147 5.13844H19.5255V9.24918H15.4147V5.13844Z" fill="#464255"/>
<path d="M4.11167 21.5814H10.2778C10.5503 21.5814 10.8117 21.4731 11.0045 21.2804C11.1972 21.0877 11.3055 20.8263 11.3055 20.5537V14.3876C11.3055 14.115 11.1972 13.8537 11.0045 13.6609C10.8117 13.4682 10.5503 13.3599 10.2778 13.3599H4.11167C3.83911 13.3599 3.57771 13.4682 3.38499 13.6609C3.19226 13.8537 3.08398 14.115 3.08398 14.3876V20.5537C3.08398 20.8263 3.19226 21.0877 3.38499 21.2804C3.57771 21.4731 3.83911 21.5814 4.11167 21.5814ZM5.13935 15.4153H9.25009V19.526H5.13935V15.4153Z" fill="#464255"/>
<path d="M14.3871 21.5814H20.5532C20.8257 21.5814 21.0871 21.4731 21.2798 21.2804C21.4726 21.0877 21.5808 20.8263 21.5808 20.5537V14.3876C21.5808 14.115 21.4726 13.8537 21.2798 13.6609C21.0871 13.4682 20.8257 13.3599 20.5532 13.3599H14.3871C14.1145 13.3599 13.8531 13.4682 13.6604 13.6609C13.4676 13.8537 13.3594 14.115 13.3594 14.3876V20.5537C13.3594 20.8263 13.4676 21.0877 13.6604 21.2804C13.8531 21.4731 14.1145 21.5814 14.3871 21.5814ZM15.4147 15.4153H19.5255V19.526H15.4147V15.4153Z" fill="#464255"/>
</svg>
